PathFileType	4	(X/Y/Z)	Patient4_TMGait_0pt5_02_left_19.trc.trc
DataRate	CameraRate	NumFrames	NumMarkers	Units	OrigDataRate	OrigDataStartFrame	OrigNumFrames
76.502732240437	76.502732240437	4	33	mm	76.502732240437	18	       141
Frame#	Time	Sacral			L.Shoulder			Chest			R.Shoulder			Neck			R.ASIS			L.ASIS			R.Thigh.Superior			R.Thigh.Lateral			R.Thigh.Inferior			R.Patella			L.Thigh.Superior			L.Thigh.Lateral			L.Thigh.Inferior			L.Patella			L.Shank.Superior			L.Shank.Lateral			L.Shank.Inferior			R.Shank.Superior			R.Shank.Lateral			R.Shank.Inferior			R.Heel			R.Midfoot.Superior			R.Midfoot.Lateral			R.Toe			L.Heel			L.Midfoot.Lateral			L.Midfoot.Superior			L.Toe			L.Elbow			L.Wrist			R.Elbow			R.Wrist			
		X1	Y1	Z1	X2	Y2	Z2	X3	Y3	Z3	X4	Y4	Z4	X5	Y5	Z5	X6	Y6	Z6	X7	Y7	Z7	X8	Y8	Z8	X9	Y9	Z9	X10	Y10	Z10	X11	Y11	Z11	X12	Y12	Z12	X13	Y13	Z13	X14	Y14	Z14	X15	Y15	Z15	X16	Y16	Z16	X17	Y17	Z17	X18	Y18	Z18	X19	Y19	Z19	X20	Y20	Z20	X21	Y21	Z21	X22	Y22	Z22	X23	Y23	Z23	X24	Y24	Z24	X25	Y25	Z25	X26	Y26	Z26	X27	Y27	Z27	X28	Y28	Z28	X29	Y29	Z29	X30	Y30	Z30	X31	Y31	Z31	X32	Y32	Z32	X33	Y33	Z33	

18	24.242214285714	590.098074077448	1017.995477793895	565.688622821257	785.567149672682	1442.304936255724	398.840792109094	894.320446069106	1354.092996359961	546.017864065909	832.890762363577	1423.763509178629	730.830241059805	802.849170789137	1492.376822883483	553.241826692520	816.353432524544	936.369062226898	669.621413079971	792.350531247867	964.132609137979	396.790440247979	825.561473870928	729.476053376551	639.538942925205	729.427204569794	631.751246011547	699.029021671357	797.327192697402	569.722895191528	619.554522461265	785.047734127174	483.317883059797	623.911860323984	859.729432373274	777.282166050686	420.842548999184	810.204054911372	653.738899466601	338.123785987959	909.466783392899	590.050668828823	400.160072942185	935.499140060296	527.755385461603	395.714127984596	922.721704834283	458.421048553799	381.796940787566	865.669019837655	327.577064975827	324.470989733911	956.383350781412	231.744242495615	378.073397521379	748.930441566705	398.254324586415	627.757801464389	665.957616301549	301.335232920766	684.380102272174	700.267834832829	203.884806408050	620.644305438977	553.857145980633	45.556103276194	580.448192652162	723.839103516635	96.550986423303	625.206253362127	632.929495977513	36.644552975650	658.889646044145	841.249851433141	41.145431972389	660.143145419812	877.303842153521	52.822909159750	412.643796661498	950.901828523404	57.678929174984	332.399381140481	1023.368560437414	132.905466348810	353.101941833770	1155.743989817616	101.742430013478	326.120356441937	646.052622482638	1117.882746612318	285.816245746803	634.009613731114	857.879746082823	267.784033573692	910.406392955106	1092.619841932159	853.098832534339	1131.799374323675	958.892404322202	832.966976125424	
19	24.255285714286	590.086587653297	1016.866529202839	563.916288134307	784.126364453007	1441.744742214443	397.154863220085	893.018854274496	1353.961403988853	544.495900995810	830.957775804701	1423.309277602239	729.230028840021	801.012628553325	1491.807582305807	551.597460018919	816.390706800495	936.000925821630	668.378953749926	792.649594431891	963.032744394593	395.484704998186	824.381600000127	728.693683686090	638.500110174081	727.381530837052	631.438589817478	698.046620619505	794.759947187895	568.840932878134	618.903217130905	781.707699412429	482.348945573404	623.229360268968	859.626024246953	775.329494582447	419.889984721984	809.052612996907	651.568067892680	337.803206703876	907.878088524966	587.648131859712	399.866298656250	932.962833264154	524.316374603678	395.548589238827	918.963920412326	454.484099612405	381.946712854496	858.892579495769	324.777174341900	324.976007574882	947.347055757949	227.037656566659	378.884197247906	744.843512453200	397.527134743182	627.141134900803	661.166815913365	301.418494476639	684.032830297973	694.630680618930	203.573429719744	620.378102263397	547.269939865700	45.625718248442	580.470489942378	717.272906712330	96.524745366999	625.217458377605	626.327700242748	36.660007924748	658.911325283559	834.650030234080	41.029021667169	660.178040897980	864.033868138147	50.450447380735	413.583515625486	937.781685121080	53.468177172541	333.427298173667	1012.123434902129	126.751510135706	354.278370848511	1143.746875522876	92.172163797901	327.441502814677	644.386448703470	1117.572429886308	284.318597633213	634.380721101178	857.257311674916	266.901659315885	909.030457153431	1092.021325781627	850.941651380952	1131.681855202878	960.802594538426	829.254820203817	
20	24.268357142857	590.185589070488	1015.596734944561	561.989601471045	782.815172960698	1441.012892396870	395.249599138400	891.796994979214	1353.721083224474	542.840785372222	828.993545884640	1422.784853777708	727.456666988380	799.264551675966	1491.135146344993	549.717257217569	816.563128926426	935.539060192911	667.052789787304	793.096590721929	961.823704298843	394.110150276073	823.504697126080	727.839235869132	637.402794296651	725.636829647559	631.032551206401	696.957953342548	792.537282447053	567.887011755151	618.140873044685	778.674045652566	481.261076067147	622.410689777359	859.501537469373	773.037500281787	418.808875394310	807.607797997719	649.181616164955	337.449712037811	906.007885958381	584.980691903380	399.577012904798	930.027140408813	520.604860058184	395.450949107057	914.822375420272	450.322720322070	382.131239317222	851.693569995712	321.794890751327	325.613463733044	937.891131403612	222.184326346914	379.830968180318	741.018808097802	396.711394933288	626.432508465694	656.589916100417	301.480159039576	683.641283498832	689.097054005846	203.220525565015	620.065151209720	540.686430182791	45.737713642060	580.494774414028	710.710693681173	96.485730308661	625.206230209441	619.737309260418	36.692264941320	658.944798873078	828.061726920305	40.897820727884	660.212602089097	850.382157830898	47.989646069205	414.599665414509	924.288919240513	49.323102299073	334.550660421392	1000.424463086453	120.601473269157	355.717891082645	1131.316702579684	82.696951311402	329.044311572414	643.209764937759	1116.907083403347	282.547285815615	635.529705393943	856.281072047630	265.764742302773	907.094044012283	1091.190606903607	848.737439020722	1130.722639631940	962.070911296874	825.474912195902	
21	24.281428571429	590.368334509776	1014.235299763050	559.927761991025	781.643649887183	1440.147676759776	393.135139661824	890.671181818843	1353.400586481464	541.050583410211	827.035797598337	1422.220208959290	725.514592134789	797.633745404741	1490.395113191972	547.604579896366	816.855500418112	935.001334367336	665.620616501314	793.641121948459	960.554062976331	392.657678716385	822.919859264218	726.930143243807	636.220507160440	724.196826676572	630.551573886467	695.755900611717	790.660776954319	566.876920550606	617.250339585147	775.957558281788	480.079871496936	621.449074811216	859.323138132539	770.481560236306	417.566448124630	805.836910795469	646.669074539203	337.044876423082	903.883442366658	582.172017396741	399.253545165287	926.757234561341	516.784568178383	395.381458607144	910.416171854293	446.124330571705	382.301497155493	844.315512293553	318.762949019082	326.357322487176	928.360932617661	217.412761332394	380.857302479907	737.469095528617	395.836199547996	625.631332934115	652.235737453430	301.545952614711	683.202084267983	683.678967886648	202.853596573435	619.712312774312	534.115650629582	45.934840078268	580.533241311558	704.171096538619	96.445680344988	625.183255863524	613.165981684541	36.761193794887	658.991912158888	821.490141138944	40.744415454780	660.248300968270	836.875175425222	45.572307148990	415.673996950941	910.919387486115	45.472355482746	335.715239632748	988.690276209314	114.770653612295	357.345400427419	1118.906960576798	73.786676577857	330.787447403779	642.530327601761	1115.926287120708	280.502484054385	637.436178852603	854.999122241647	264.356789558459	904.620744885038	1090.149958805268	846.474479791956	1128.935889584599	962.660264686256	821.666593187143	
